<svg id="Capa_1" enable-background="new 0 0 512 512" height="512" viewBox="0 0 512 512" width="512" xmlns="http://www.w3.org/2000/svg"><g><path d="m491.205 386.414h-145.014c4.597-5.332 9.853-12.067 15.371-20.376.002-.003.003-.006.005-.01 3.576-5.385 7.038-11.101 10.292-16.988 2.003-3.626.688-8.188-2.937-10.192-3.627-2.004-8.188-.689-10.192 2.937-2.145 3.881-4.388 7.672-6.691 11.337l-7-2.04c-26.744-8.314-41.571-15.907-53.456-36.31 19.18-17.546 22.984-36.72 24.679-54.47l25.918 3.039c14.249 1.666 27.307-8.475 28.999-22.913 1.909-16.278-11.599-29.008-23.756-29.05l-20.649-.08c2.721-4.674 6.129-9.026 10.338-13.216 12.986 6.725 27.742 7.212 40.517 2.431 1.129.783 8.956 2.846 13.891 13.675 3.559 7.809 2.406 17.182.92 26.112-4.232 25.448-10.717 49.268-19.273 70.798-1.53 3.849.351 8.209 4.2 9.739 3.832 1.523 8.203-.334 9.74-4.2 8.951-22.521 15.724-47.376 20.131-73.876 1.784-10.725 3.242-23.143-2.068-34.794-3.071-6.737-7.335-12.146-12.712-16.162 10.881-9.21 17.807-22.954 17.807-38.292v-10.5c0-3.706-.416-7.315-1.182-10.794 16.959-6.207 21.916-28.037 9.019-40.935-11.58-11.577-31.024-9.02-39.176 5.241-5.818-2.365-12.17-3.679-18.827-3.679-27.662 0-50.167 22.505-50.167 50.167v10.5c0 13.937 5.717 26.56 14.923 35.66-6.413 6.752-11.32 14.045-14.841 22.059l-69.369-.27c-13.782-.034-47.208 6.665-50.93 8.765l-33.916-25.545c-7.724-9.805-16.065-17.3-23.72-32.765l-11.732-23.709c-8.564-17.305-34.432-10.009-33.72 8.678l1.583 41.632c.376 9.896 6.127 18.766 15.006 23.148 3.881 2.231 10.91 4.133 17.475 12.074.032.038.068.071.1.108.031.037.058.076.091.113l15.23 17.023c2.76 3.086 7.503 3.351 10.59.589 3.087-2.763 3.351-7.504.588-10.591l-9.878-11.041 13.264-10.338 32.026 24.122c.565 6.811 5.616 12.075 12.465 12.878l5.486.643 13.592 10.238c31.044 23.38 46.199 44.143 61.622 60.336 14.611 28.164 33.359 38.342 64.784 48.104.061.02.749.22 2.52.736-7.203 9.754-13.462 16.329-17.606 20.252h-74.545c-8.223-15.14-14.985-28.307-20.991-40.011-16.931-32.993-28.116-54.79-50.735-80.147l-8.625-9.641c-2.762-3.086-7.503-3.352-10.59-.588-3.087 2.762-3.35 7.503-.588 10.59l8.613 9.626c21.34 23.924 32.177 45.042 48.581 77.009 5.084 9.906 10.697 20.842 17.291 33.162h-213.181c-11.466.002-20.795 9.33-20.795 20.797s9.329 20.795 20.795 20.795h470.409c11.467 0 20.795-9.328 20.795-20.795s-9.328-20.795-20.794-20.795zm-166.274-232.901v-10.5c0-1.324.08-2.63.224-3.917h26.125c3.668 0 6.652 2.984 6.652 6.652 0 5.276 1.922 10.362 5.412 14.319l18.536 21.024c-22.871 18.102-56.949 1.842-56.949-27.578zm82.563-51.621c5.169 5.168 3.125 13.986-3.817 16.319-3.07-5.373-7.096-10.132-11.858-14.029 3.165-5.842 11.018-6.947 15.675-2.29zm-47.397 5.954c19.391 0 35.167 15.775 35.167 35.167v10.5c0 5.683-1.363 11.051-3.767 15.806l-16.903-19.172c-1.072-1.216-1.663-2.778-1.663-4.399 0-11.939-9.713-21.652-21.652-21.652h-20.804c6.256-9.761 17.192-16.25 29.622-16.25zm-119.512 118.117 106.303.413c5.91.889 10.097 6.31 9.394 12.306-.716 6.107-6.241 10.481-12.354 9.761l-142.091-16.659c22.817-4.815 33.638-5.835 38.748-5.821zm-113.403-17.565c-7.147-6.461-13.301-8.486-17.327-10.682-3.939-1.944-6.489-5.878-6.656-10.268l-1.583-41.632c-.113-2.955 4.044-3.966 5.287-1.455l11.732 23.71c8.174 16.516 17.398 25.477 21.232 30.441zm102.748 41.782 71.435 8.375c-1.478 15.95-4.321 30.272-18.646 43.976-11.931-12.584-25.592-30.658-52.789-52.351zm261.275 162.824h-470.41c-3.196 0-5.795-2.6-5.795-5.795s2.6-5.795 5.795-5.795h470.409c3.196 0 5.795 2.6 5.795 5.795s-2.599 5.795-5.794 5.795z"/></g></svg>